<svg width="220" height="55" viewBox="0 0 220 55" fill="none" xmlns="http://www.w3.org/2000/svg">
<path d="M187.056 48.576C187.184 48.4907 187.285 48.448 187.36 48.448C187.456 48.448 187.504 48.496 187.504 48.592C187.504 48.6773 187.44 48.8107 187.312 48.992C187.184 49.1733 187.013 49.36 186.8 49.552C186.597 49.744 186.368 49.9093 186.112 50.048C185.856 50.1867 185.595 50.256 185.328 50.256C184.773 50.256 184.4 50.0907 184.208 49.76C184.016 49.4187 183.92 48.912 183.92 48.24V43.088H183.856C183.621 43.0987 183.392 43.1147 183.168 43.136C182.944 43.1467 182.832 43.152 182.832 43.152C182.693 43.152 182.576 43.0827 182.48 42.944C182.384 42.7947 182.336 42.6667 182.336 42.56C182.336 42.4533 182.389 42.4 182.496 42.4H183.92V41.552C183.92 41.4453 183.915 41.28 183.904 41.056C183.904 40.832 183.899 40.6027 183.888 40.368C183.888 40.1333 183.888 39.9573 183.888 39.84C183.888 39.744 183.968 39.696 184.128 39.696C184.267 39.696 184.416 39.7387 184.576 39.824C184.736 39.8987 184.816 40 184.816 40.128C184.816 40.2133 184.811 40.3467 184.8 40.528C184.8 40.6987 184.795 40.88 184.784 41.072C184.784 41.264 184.784 41.424 184.784 41.552V42.352L185.264 42.336C185.456 42.3253 185.68 42.3093 185.936 42.288C186.192 42.2667 186.373 42.2507 186.48 42.24H186.496C186.624 42.24 186.736 42.3093 186.832 42.448C186.928 42.576 186.976 42.6987 186.976 42.816C186.976 42.944 186.923 43.008 186.816 43.008C186.709 43.008 186.507 43.008 186.208 43.008C185.909 43.008 185.653 43.0133 185.44 43.024L184.784 43.056V48.272C184.784 48.72 184.827 49.0187 184.912 49.168C184.997 49.3173 185.157 49.392 185.392 49.392C185.616 49.392 185.867 49.3227 186.144 49.184C186.421 49.0453 186.699 48.864 186.976 48.64L187.056 48.576ZM189.654 46.784V46.832C189.654 47.7067 189.851 48.3627 190.246 48.8C190.651 49.2373 191.126 49.456 191.67 49.456C192.363 49.456 192.992 49.3333 193.558 49.088C194.134 48.832 194.635 48.4747 195.062 48.016C195.19 47.8773 195.302 47.808 195.398 47.808C195.483 47.808 195.526 47.8613 195.526 47.968C195.526 48.064 195.446 48.2347 195.286 48.48C195.126 48.7253 194.886 48.9867 194.566 49.264C194.256 49.5307 193.856 49.7653 193.366 49.968C192.886 50.16 192.32 50.256 191.67 50.256C191.126 50.256 190.635 50.1227 190.198 49.856C189.771 49.5787 189.43 49.1893 189.174 48.688C188.918 48.176 188.79 47.5733 188.79 46.88V46.64C188.566 46.4907 188.454 46.3307 188.454 46.16C188.454 46.032 188.544 45.968 188.726 45.968C188.747 45.968 188.779 45.968 188.822 45.968C188.875 45.9573 188.902 45.952 188.902 45.952C188.966 45.568 189.11 45.1627 189.334 44.736C189.568 44.3093 189.862 43.9093 190.214 43.536C190.566 43.1627 190.966 42.8587 191.414 42.624C191.862 42.3787 192.347 42.256 192.87 42.256C193.52 42.256 194.038 42.368 194.422 42.592C194.806 42.816 195.078 43.104 195.238 43.456C195.408 43.808 195.494 44.176 195.494 44.56C195.494 44.8693 195.456 45.1253 195.382 45.328C195.307 45.5307 195.158 45.7067 194.934 45.856C194.72 45.9947 194.4 46.1333 193.974 46.272C193.494 46.4107 192.907 46.5333 192.214 46.64C191.52 46.736 190.731 46.784 189.846 46.784H189.654ZM190.102 46C190.912 46 191.6 45.9573 192.166 45.872C192.742 45.7867 193.211 45.6907 193.574 45.584C193.904 45.488 194.139 45.3973 194.278 45.312C194.427 45.2267 194.523 45.1253 194.566 45.008C194.608 44.8907 194.63 44.736 194.63 44.544C194.63 44.0747 194.475 43.7067 194.166 43.44C193.856 43.1627 193.419 43.024 192.854 43.024C192.459 43.024 192.086 43.1253 191.734 43.328C191.382 43.52 191.067 43.7707 190.79 44.08C190.523 44.3893 190.299 44.7147 190.118 45.056C189.936 45.3973 189.819 45.712 189.766 46H190.102ZM204.181 47.728C204.181 47.8133 204.101 47.9893 203.941 48.256C203.792 48.5227 203.562 48.8107 203.253 49.12C202.944 49.4293 202.554 49.696 202.085 49.92C201.626 50.144 201.082 50.256 200.453 50.256C199.898 50.256 199.386 50.128 198.917 49.872C198.458 49.616 198.085 49.2373 197.797 48.736C197.52 48.2347 197.381 47.6213 197.381 46.896C197.381 46.256 197.498 45.6587 197.733 45.104C197.968 44.5387 198.282 44.0427 198.677 43.616C199.072 43.1893 199.509 42.8587 199.989 42.624C200.48 42.3787 200.97 42.256 201.461 42.256C201.909 42.256 202.277 42.32 202.565 42.448C202.864 42.576 203.098 42.7253 203.269 42.896C203.44 43.056 203.562 43.2053 203.637 43.344C203.712 43.4827 203.749 43.568 203.749 43.6C203.749 43.7493 203.685 43.888 203.557 44.016C203.44 44.144 203.322 44.208 203.205 44.208C203.141 44.208 203.093 44.1813 203.061 44.128C202.88 43.7867 202.666 43.5253 202.421 43.344C202.176 43.152 201.866 43.056 201.493 43.056C201.109 43.056 200.725 43.1573 200.341 43.36C199.968 43.5627 199.621 43.84 199.301 44.192C198.992 44.5333 198.741 44.9333 198.549 45.392C198.368 45.84 198.277 46.3147 198.277 46.816C198.277 47.424 198.384 47.9253 198.597 48.32C198.821 48.704 199.098 48.992 199.429 49.184C199.77 49.3653 200.112 49.456 200.453 49.456C200.965 49.456 201.418 49.3707 201.813 49.2C202.208 49.0187 202.56 48.8 202.869 48.544C203.189 48.288 203.472 48.032 203.717 47.776C203.856 47.6373 203.968 47.568 204.053 47.568C204.138 47.568 204.181 47.6213 204.181 47.728ZM211.946 49.728C211.956 49.6427 211.962 49.4987 211.962 49.296C211.962 49.0933 211.962 48.8853 211.962 48.672C211.972 48.448 211.978 48.2773 211.978 48.16V45.312C211.978 44.8853 211.94 44.5067 211.866 44.176C211.791 43.8453 211.647 43.584 211.434 43.392C211.231 43.2 210.922 43.104 210.506 43.104C210.132 43.104 209.748 43.184 209.354 43.344C208.959 43.504 208.602 43.7547 208.282 44.096C207.962 44.4267 207.722 44.864 207.562 45.408C207.487 45.6747 207.428 45.9893 207.386 46.352C207.354 46.7147 207.332 47.072 207.322 47.424C207.322 47.7653 207.316 48.064 207.306 48.32V48.576C207.306 48.832 207.311 49.0827 207.322 49.328C207.332 49.5733 207.343 49.8027 207.354 50.016C207.354 50.112 207.274 50.16 207.114 50.16C206.975 50.16 206.82 50.1173 206.65 50.032C206.49 49.9573 206.41 49.856 206.41 49.728C206.41 49.6427 206.41 49.488 206.41 49.264C206.42 49.04 206.426 48.8213 206.426 48.608C206.436 48.384 206.442 48.2347 206.442 48.16V40.56C206.442 40.4533 206.436 40.288 206.426 40.064C206.415 39.84 206.404 39.6107 206.394 39.376C206.394 39.1413 206.394 38.9653 206.394 38.848C206.394 38.752 206.474 38.704 206.634 38.704C206.783 38.704 206.938 38.7467 207.098 38.832C207.258 38.9067 207.338 39.008 207.338 39.136C207.338 39.2213 207.332 39.3653 207.322 39.568C207.322 39.7707 207.316 39.984 207.306 40.208C207.306 40.4213 207.306 40.592 207.306 40.72V44.272C207.519 43.8347 207.802 43.472 208.154 43.184C208.506 42.8853 208.884 42.6613 209.29 42.512C209.706 42.352 210.111 42.272 210.506 42.272C211.018 42.272 211.428 42.368 211.738 42.56C212.047 42.7413 212.282 42.9813 212.442 43.28C212.602 43.5787 212.708 43.904 212.762 44.256C212.815 44.5973 212.842 44.928 212.842 45.248V48.32C212.842 48.384 212.847 48.528 212.858 48.752C212.868 48.976 212.874 49.2107 212.874 49.456C212.884 49.7013 212.89 49.888 212.89 50.016C212.89 50.112 212.804 50.16 212.634 50.16C212.495 50.16 212.346 50.1173 212.186 50.032C212.026 49.9573 211.946 49.8613 211.946 49.744V49.728ZM217.224 50.128C217 50.128 216.802 50.0213 216.632 49.808C216.461 49.5947 216.376 49.3867 216.376 49.184C216.376 48.6933 216.605 48.448 217.064 48.448C217.266 48.448 217.458 48.5547 217.64 48.768C217.821 48.9707 217.912 49.184 217.912 49.408C217.912 49.888 217.682 50.128 217.224 50.128Z" fill="black"/>
<path d="M3.84 18.152C3.84 17.4907 3.81867 16.8507 3.776 16.232C3.75467 15.6133 3.744 15.1227 3.744 14.76C3.744 14.6533 3.79733 14.5787 3.904 14.536C4.01067 14.472 4.13867 14.44 4.288 14.44C4.608 14.44 4.93867 14.5253 5.28 14.696C5.64267 14.8453 5.824 15.0587 5.824 15.336C5.824 15.592 5.81333 15.9973 5.792 16.552C5.77067 17.0853 5.76 17.6293 5.76 18.184V33.608C5.76 34.2693 5.77067 34.9093 5.792 35.528C5.83467 36.1467 5.856 36.6373 5.856 37C5.856 37.1067 5.80267 37.1813 5.696 37.224C5.58933 37.288 5.46133 37.32 5.312 37.32C4.992 37.32 4.65067 37.2347 4.288 37.064C3.94667 36.9147 3.776 36.7013 3.776 36.424C3.776 36.168 3.78667 35.7733 3.808 35.24C3.82933 34.6853 3.84 34.1307 3.84 33.576V18.152ZM23.7988 27.592C23.7988 26.7387 23.7134 25.9813 23.5428 25.32C23.3934 24.6587 23.1054 24.136 22.6788 23.752C22.2734 23.368 21.6654 23.176 20.8548 23.176C20.1081 23.176 19.3401 23.336 18.5508 23.656C17.7614 23.976 17.0468 24.4773 16.4068 25.16C15.7668 25.8213 15.2868 26.696 14.9668 27.784C14.7108 28.6373 14.5614 29.5973 14.5188 30.664C14.4974 31.7093 14.4761 32.7013 14.4548 33.64V34.088C14.4548 34.6853 14.4654 35.2507 14.4868 35.784C14.5294 36.296 14.5508 36.712 14.5508 37.032C14.5508 37.224 14.3908 37.32 14.0708 37.32C13.7934 37.32 13.4841 37.2347 13.1428 37.064C12.8228 36.9147 12.6628 36.712 12.6628 36.456C12.6628 36.2853 12.6628 36.008 12.6628 35.624C12.6841 35.2187 12.6948 34.824 12.6948 34.44C12.7161 34.056 12.7268 33.7893 12.7268 33.64V25.32C12.7268 25.1067 12.7161 24.776 12.6948 24.328C12.6734 23.88 12.6521 23.4213 12.6308 22.952C12.6308 22.4827 12.6308 22.1307 12.6308 21.896C12.6308 21.704 12.7908 21.608 13.1108 21.608C13.4094 21.608 13.7188 21.6933 14.0388 21.864C14.3588 22.0133 14.5188 22.216 14.5188 22.472C14.5188 22.6427 14.5188 22.92 14.5188 23.304C14.5188 23.6667 14.5081 24.0507 14.4868 24.456C14.4868 24.8613 14.4868 25.2133 14.4868 25.512C14.9134 24.6373 15.4681 23.912 16.1508 23.336C16.8548 22.7387 17.6121 22.2907 18.4228 21.992C19.2548 21.672 20.0654 21.512 20.8548 21.512C21.8788 21.512 22.7001 21.704 23.3188 22.088C23.9374 22.4507 24.4068 22.9307 24.7268 23.528C25.0468 24.1253 25.2601 24.776 25.3668 25.48C25.4734 26.1627 25.5268 26.824 25.5268 27.464V33.64C25.5268 33.768 25.5374 34.056 25.5588 34.504C25.5801 34.952 25.5908 35.4213 25.5908 35.912C25.6121 36.4027 25.6228 36.776 25.6228 37.032C25.6228 37.224 25.4628 37.32 25.1428 37.32C24.8654 37.32 24.5561 37.2347 24.2148 37.064C23.8948 36.9147 23.7348 36.712 23.7348 36.456C23.7348 36.2853 23.7348 36.0293 23.7348 35.688C23.7561 35.3253 23.7668 34.952 23.7668 34.568C23.7881 34.184 23.7988 33.8747 23.7988 33.64V27.592ZM32.8193 23.176L32.1793 23.208C31.7099 23.2293 31.2513 23.2613 30.8033 23.304C30.3553 23.3253 30.1313 23.336 30.1313 23.336C29.8539 23.336 29.6193 23.1973 29.4273 22.92C29.2353 22.6213 29.1393 22.3653 29.1393 22.152C29.1393 21.9387 29.2459 21.832 29.4593 21.832H31.8273L32.8193 21.8V18.152C32.8193 16.936 33.1819 16.008 33.9073 15.368C34.6326 14.728 35.4539 14.408 36.3713 14.408C36.9259 14.408 37.5019 14.5147 38.0993 14.728C38.6966 14.92 39.2299 15.2933 39.6993 15.848C39.8059 15.9547 39.8593 16.104 39.8593 16.296C39.8593 16.5733 39.7739 16.8613 39.6033 17.16C39.4326 17.4587 39.2299 17.608 38.9953 17.608C38.8246 17.608 38.6753 17.4907 38.5473 17.256C38.2913 16.7867 37.9499 16.4773 37.5233 16.328C37.0966 16.1573 36.7019 16.072 36.3393 16.072C35.9126 16.072 35.5073 16.2427 35.1233 16.584C34.7393 16.9253 34.5473 17.4373 34.5473 18.12V21.736L35.4433 21.704C35.6993 21.6827 36.0086 21.6613 36.3713 21.64C36.7553 21.6187 37.1179 21.5973 37.4593 21.576C37.8006 21.5333 38.0459 21.512 38.1953 21.512H38.2273C38.4833 21.512 38.7073 21.6507 38.8993 21.928C39.0913 22.184 39.1873 22.4293 39.1873 22.664C39.1873 22.92 39.0806 23.048 38.8673 23.048C38.7179 23.048 38.4513 23.048 38.0673 23.048C37.6833 23.048 37.2779 23.048 36.8513 23.048C36.4246 23.048 36.0726 23.0587 35.7953 23.08L34.5473 23.144V33.64C34.5473 34.3013 34.5579 34.9413 34.5793 35.56C34.6219 36.1787 34.6433 36.6693 34.6433 37.032C34.6433 37.224 34.4833 37.32 34.1633 37.32C33.8859 37.32 33.5766 37.2347 33.2352 37.064C32.9152 36.9147 32.7552 36.712 32.7552 36.456C32.7552 36.2 32.7659 35.752 32.7873 35.112C32.8086 34.4507 32.8193 33.8427 32.8193 33.288V23.176ZM41.8753 17.736C41.4699 17.736 41.1073 17.5547 40.7873 17.192C40.4886 16.808 40.3393 16.424 40.3393 16.04C40.3393 15.6347 40.4353 15.3147 40.6273 15.08C40.8406 14.8453 41.1499 14.728 41.5553 14.728C41.9179 14.728 42.2593 14.92 42.5793 15.304C42.8993 15.6667 43.0593 16.0613 43.0593 16.488C43.0593 17.32 42.6646 17.736 41.8753 17.736ZM40.8833 25.224C40.8833 25.0107 40.8726 24.68 40.8513 24.232C40.8513 23.784 40.8406 23.3253 40.8193 22.856C40.7979 22.3867 40.7873 22.0347 40.7873 21.8C40.7873 21.6293 40.9473 21.544 41.2673 21.544C41.5446 21.544 41.8433 21.6293 42.1633 21.8C42.5046 21.9493 42.6753 22.1413 42.6753 22.376C42.6753 22.5467 42.6646 22.8133 42.6433 23.176C42.6433 23.5173 42.6326 23.88 42.6113 24.264C42.6113 24.648 42.6113 24.968 42.6113 25.224V33.64C42.6113 33.768 42.6219 34.056 42.6433 34.504C42.6646 34.952 42.6753 35.4213 42.6753 35.912C42.6966 36.4027 42.7073 36.776 42.7073 37.032C42.7073 37.2027 42.5473 37.288 42.2273 37.288C41.9499 37.288 41.6406 37.2027 41.2993 37.032C40.9793 36.8827 40.8193 36.6907 40.8193 36.456C40.8193 36.2853 40.8193 36.008 40.8193 35.624C40.8406 35.2187 40.8513 34.824 40.8513 34.44C40.8726 34.056 40.8833 33.7893 40.8833 33.64V25.224ZM60.0175 27.592C60.0175 26.7387 59.9322 25.9813 59.7615 25.32C59.6122 24.6587 59.3242 24.136 58.8975 23.752C58.4922 23.368 57.8842 23.176 57.0735 23.176C56.3268 23.176 55.5588 23.336 54.7695 23.656C53.9802 23.976 53.2655 24.4773 52.6255 25.16C51.9855 25.8213 51.5055 26.696 51.1855 27.784C50.9295 28.6373 50.7802 29.5973 50.7375 30.664C50.7162 31.7093 50.6948 32.7013 50.6735 33.64V34.088C50.6735 34.6853 50.6842 35.2507 50.7055 35.784C50.7482 36.296 50.7695 36.712 50.7695 37.032C50.7695 37.224 50.6095 37.32 50.2895 37.32C50.0122 37.32 49.7028 37.2347 49.3615 37.064C49.0415 36.9147 48.8815 36.712 48.8815 36.456C48.8815 36.2853 48.8815 36.008 48.8815 35.624C48.9028 35.2187 48.9135 34.824 48.9135 34.44C48.9348 34.056 48.9455 33.7893 48.9455 33.64V25.32C48.9455 25.1067 48.9348 24.776 48.9135 24.328C48.8922 23.88 48.8708 23.4213 48.8495 22.952C48.8495 22.4827 48.8495 22.1307 48.8495 21.896C48.8495 21.704 49.0095 21.608 49.3295 21.608C49.6282 21.608 49.9375 21.6933 50.2575 21.864C50.5775 22.0133 50.7375 22.216 50.7375 22.472C50.7375 22.6427 50.7375 22.92 50.7375 23.304C50.7375 23.6667 50.7268 24.0507 50.7055 24.456C50.7055 24.8613 50.7055 25.2133 50.7055 25.512C51.1322 24.6373 51.6868 23.912 52.3695 23.336C53.0735 22.7387 53.8308 22.2907 54.6415 21.992C55.4735 21.672 56.2842 21.512 57.0735 21.512C58.0975 21.512 58.9188 21.704 59.5375 22.088C60.1562 22.4507 60.6255 22.9307 60.9455 23.528C61.2655 24.1253 61.4788 24.776 61.5855 25.48C61.6922 26.1627 61.7455 26.824 61.7455 27.464V33.64C61.7455 33.768 61.7562 34.056 61.7775 34.504C61.7988 34.952 61.8095 35.4213 61.8095 35.912C61.8308 36.4027 61.8415 36.776 61.8415 37.032C61.8415 37.224 61.6815 37.32 61.3615 37.32C61.0842 37.32 60.7748 37.2347 60.4335 37.064C60.1135 36.9147 59.9535 36.712 59.9535 36.456C59.9535 36.2853 59.9535 36.0293 59.9535 35.688C59.9748 35.3253 59.9855 34.952 59.9855 34.568C60.0068 34.184 60.0175 33.8747 60.0175 33.64V27.592ZM69.102 17.736C68.6967 17.736 68.334 17.5547 68.014 17.192C67.7153 16.808 67.566 16.424 67.566 16.04C67.566 15.6347 67.662 15.3147 67.854 15.08C68.0673 14.8453 68.3767 14.728 68.782 14.728C69.1447 14.728 69.486 14.92 69.806 15.304C70.126 15.6667 70.286 16.0613 70.286 16.488C70.286 17.32 69.8913 17.736 69.102 17.736ZM68.078 25.224C68.078 25.0107 68.0673 24.68 68.046 24.232C68.0247 23.784 68.0033 23.3253 67.982 22.856C67.982 22.3867 67.982 22.0347 67.982 21.8C67.982 21.6293 68.142 21.544 68.462 21.544C68.7607 21.544 69.07 21.6293 69.39 21.8C69.7313 21.9493 69.902 22.1413 69.902 22.376C69.902 22.5467 69.8913 22.8133 69.87 23.176C69.87 23.5173 69.8593 23.88 69.838 24.264C69.838 24.648 69.838 24.968 69.838 25.224V33.64C69.838 33.768 69.8487 34.056 69.87 34.504C69.8913 34.952 69.902 35.4213 69.902 35.912C69.9233 36.4027 69.934 36.776 69.934 37.032C69.934 37.2027 69.774 37.288 69.454 37.288C69.1767 37.288 68.8673 37.2027 68.526 37.032C68.1847 36.8827 68.014 36.6907 68.014 36.456C68.014 36.2853 68.014 36.008 68.014 35.624C68.0353 35.2187 68.046 34.824 68.046 34.44C68.0673 34.056 68.078 33.7893 68.078 33.64V25.224ZM83.2683 34.152C83.5243 33.9813 83.7269 33.896 83.8763 33.896C84.0683 33.896 84.1643 33.992 84.1643 34.184C84.1643 34.3547 84.0363 34.6213 83.7803 34.984C83.5243 35.3467 83.1829 35.72 82.7563 36.104C82.3509 36.488 81.8923 36.8187 81.3802 37.096C80.8683 37.3733 80.3456 37.512 79.8123 37.512C78.7029 37.512 77.9563 37.1813 77.5723 36.52C77.1883 35.8373 76.9963 34.824 76.9963 33.48V23.176H76.8683C76.3989 23.1973 75.9403 23.2293 75.4923 23.272C75.0443 23.2933 74.8203 23.304 74.8203 23.304C74.5429 23.304 74.3083 23.1653 74.1163 22.888C73.9243 22.5893 73.8283 22.3333 73.8283 22.12C73.8283 21.9067 73.9349 21.8 74.1483 21.8H76.9963V20.104C76.9963 19.8907 76.9856 19.56 76.9643 19.112C76.9643 18.664 76.9536 18.2053 76.9323 17.736C76.9323 17.2667 76.9323 16.9147 76.9323 16.68C76.9323 16.488 77.0923 16.392 77.4123 16.392C77.6896 16.392 77.9883 16.4773 78.3083 16.648C78.6283 16.7973 78.7883 17 78.7883 17.256C78.7883 17.4267 78.7776 17.6933 78.7563 18.056C78.7563 18.3973 78.7456 18.76 78.7243 19.144C78.7243 19.528 78.7243 19.848 78.7243 20.104V21.704L79.6843 21.672C80.0683 21.6507 80.5163 21.6187 81.0283 21.576C81.5403 21.5333 81.9029 21.5013 82.1163 21.48H82.1483C82.4043 21.48 82.6283 21.6187 82.8203 21.896C83.0123 22.152 83.1083 22.3973 83.1083 22.632C83.1083 22.888 83.0016 23.016 82.7883 23.016C82.5749 23.016 82.1696 23.016 81.5723 23.016C80.9749 23.016 80.4629 23.0267 80.0363 23.048L78.7243 23.112V33.544C78.7243 34.44 78.8096 35.0373 78.9803 35.336C79.1509 35.6347 79.4709 35.784 79.9403 35.784C80.3883 35.784 80.8896 35.6453 81.4443 35.368C81.9989 35.0907 82.5536 34.728 83.1083 34.28L83.2683 34.152ZM88.4635 30.568V30.664C88.4635 32.4133 88.8582 33.7253 89.6475 34.6C90.4582 35.4747 91.4075 35.912 92.4955 35.912C93.8822 35.912 95.1408 35.6667 96.2715 35.176C97.4235 34.664 98.4262 33.9493 99.2795 33.032C99.5355 32.7547 99.7595 32.616 99.9515 32.616C100.122 32.616 100.208 32.7227 100.208 32.936C100.208 33.128 100.048 33.4693 99.7275 33.96C99.4075 34.4507 98.9275 34.9733 98.2875 35.528C97.6688 36.0613 96.8688 36.5307 95.8875 36.936C94.9275 37.32 93.7968 37.512 92.4955 37.512C91.4075 37.512 90.4262 37.2453 89.5515 36.712C88.6982 36.1573 88.0155 35.3787 87.5035 34.376C86.9915 33.352 86.7355 32.1467 86.7355 30.76V30.28C86.2875 29.9813 86.0635 29.6613 86.0635 29.32C86.0635 29.064 86.2448 28.936 86.6075 28.936C86.6502 28.936 86.7142 28.936 86.7995 28.936C86.9062 28.9147 86.9595 28.904 86.9595 28.904C87.0875 28.136 87.3755 27.3253 87.8235 26.472C88.2928 25.6187 88.8795 24.8187 89.5835 24.072C90.2875 23.3253 91.0875 22.7173 91.9835 22.248C92.8795 21.7573 93.8502 21.512 94.8955 21.512C96.1968 21.512 97.2315 21.736 97.9995 22.184C98.7675 22.632 99.3115 23.208 99.6315 23.912C99.9728 24.616 100.144 25.352 100.144 26.12C100.144 26.7387 100.069 27.2507 99.9195 27.656C99.7702 28.0613 99.4715 28.4133 99.0235 28.712C98.5968 28.9893 97.9568 29.2667 97.1035 29.544C96.1435 29.8213 94.9702 30.0667 93.5835 30.28C92.1968 30.472 90.6182 30.568 88.8475 30.568H88.4635ZM89.3595 29C90.9808 29 92.3568 28.9147 93.4875 28.744C94.6395 28.5733 95.5782 28.3813 96.3035 28.168C96.9648 27.976 97.4342 27.7947 97.7115 27.624C98.0102 27.4533 98.2022 27.2507 98.2875 27.016C98.3728 26.7813 98.4155 26.472 98.4155 26.088C98.4155 25.1493 98.1062 24.4133 97.4875 23.88C96.8688 23.3253 95.9942 23.048 94.8635 23.048C94.0742 23.048 93.3275 23.2507 92.6235 23.656C91.9195 24.04 91.2902 24.5413 90.7355 25.16C90.2022 25.7787 89.7542 26.4293 89.3915 27.112C89.0288 27.7947 88.7942 28.424 88.6875 29H89.3595Z" fill="black"/>
<path d="M123.535 31.144C123.535 31.3147 123.396 31.6453 123.119 32.136C122.863 32.6053 122.468 33.1493 121.935 33.768C121.423 34.3653 120.761 34.952 119.951 35.528C119.161 36.104 118.223 36.584 117.135 36.968C116.068 37.3307 114.852 37.512 113.487 37.512C111.631 37.512 109.967 37.1813 108.495 36.52C107.044 35.8373 105.892 34.7707 105.039 33.32C104.185 31.848 103.759 29.9493 103.759 27.624C103.759 25.7467 104.047 23.9973 104.623 22.376C105.199 20.7547 105.999 19.336 107.023 18.12C108.047 16.904 109.252 15.9547 110.639 15.272C112.025 14.5893 113.519 14.248 115.119 14.248C116.399 14.248 117.487 14.3867 118.383 14.664C119.279 14.92 120.004 15.2293 120.559 15.592C121.113 15.9547 121.519 16.296 121.775 16.616C122.052 16.936 122.191 17.1493 122.191 17.256C122.191 17.5333 122.063 17.8213 121.807 18.12C121.572 18.4187 121.327 18.568 121.071 18.568C120.9 18.568 120.751 18.472 120.623 18.28C120.431 17.9813 120.1 17.6507 119.631 17.288C119.161 16.9253 118.543 16.616 117.775 16.36C117.007 16.0827 116.079 15.944 114.991 15.944C113.689 15.944 112.463 16.2427 111.311 16.84C110.18 17.4373 109.188 18.2693 108.335 19.336C107.481 20.3813 106.809 21.608 106.319 23.016C105.849 24.424 105.615 25.9387 105.615 27.56C105.615 29.48 105.967 31.0587 106.671 32.296C107.375 33.512 108.335 34.408 109.551 34.984C110.767 35.56 112.143 35.848 113.679 35.848C114.852 35.848 115.983 35.6347 117.071 35.208C118.159 34.7813 119.161 34.2053 120.079 33.48C120.996 32.7547 121.796 31.944 122.479 31.048C122.692 30.7707 122.916 30.632 123.151 30.632C123.407 30.632 123.535 30.8027 123.535 31.144ZM128.339 30.568V30.664C128.339 32.4133 128.733 33.7253 129.523 34.6C130.333 35.4747 131.283 35.912 132.371 35.912C133.757 35.912 135.016 35.6667 136.147 35.176C137.299 34.664 138.301 33.9493 139.155 33.032C139.411 32.7547 139.635 32.616 139.827 32.616C139.997 32.616 140.083 32.7227 140.083 32.936C140.083 33.128 139.923 33.4693 139.603 33.96C139.283 34.4507 138.803 34.9733 138.163 35.528C137.544 36.0613 136.744 36.5307 135.763 36.936C134.803 37.32 133.672 37.512 132.371 37.512C131.283 37.512 130.301 37.2453 129.427 36.712C128.573 36.1573 127.891 35.3787 127.379 34.376C126.867 33.352 126.611 32.1467 126.611 30.76V30.28C126.163 29.9813 125.939 29.6613 125.939 29.32C125.939 29.064 126.12 28.936 126.483 28.936C126.525 28.936 126.589 28.936 126.674 28.936C126.781 28.9147 126.835 28.904 126.835 28.904C126.963 28.136 127.251 27.3253 127.699 26.472C128.168 25.6187 128.755 24.8187 129.459 24.072C130.163 23.3253 130.963 22.7173 131.859 22.248C132.755 21.7573 133.725 21.512 134.771 21.512C136.072 21.512 137.107 21.736 137.875 22.184C138.643 22.632 139.187 23.208 139.507 23.912C139.848 24.616 140.019 25.352 140.019 26.12C140.019 26.7387 139.944 27.2507 139.795 27.656C139.645 28.0613 139.347 28.4133 138.899 28.712C138.472 28.9893 137.832 29.2667 136.979 29.544C136.019 29.8213 134.845 30.0667 133.459 30.28C132.072 30.472 130.493 30.568 128.723 30.568H128.339ZM129.235 29C130.856 29 132.232 28.9147 133.363 28.744C134.515 28.5733 135.453 28.3813 136.179 28.168C136.84 27.976 137.309 27.7947 137.587 27.624C137.885 27.4533 138.077 27.2507 138.163 27.016C138.248 26.7813 138.291 26.472 138.291 26.088C138.291 25.1493 137.981 24.4133 137.363 23.88C136.744 23.3253 135.869 23.048 134.739 23.048C133.949 23.048 133.203 23.2507 132.499 23.656C131.795 24.04 131.165 24.5413 130.611 25.16C130.077 25.7787 129.629 26.4293 129.266 27.112C128.904 27.7947 128.669 28.424 128.562 29H129.235ZM156.018 27.592C156.018 26.7387 155.932 25.9813 155.762 25.32C155.612 24.6587 155.324 24.136 154.898 23.752C154.492 23.368 153.884 23.176 153.074 23.176C152.327 23.176 151.559 23.336 150.77 23.656C149.98 23.976 149.266 24.4773 148.626 25.16C147.986 25.8213 147.506 26.696 147.186 27.784C146.93 28.6373 146.78 29.5973 146.738 30.664C146.716 31.7093 146.695 32.7013 146.674 33.64V34.088C146.674 34.6853 146.684 35.2507 146.706 35.784C146.748 36.296 146.77 36.712 146.77 37.032C146.77 37.224 146.61 37.32 146.29 37.32C146.012 37.32 145.703 37.2347 145.362 37.064C145.042 36.9147 144.882 36.712 144.882 36.456C144.882 36.2853 144.882 36.008 144.882 35.624C144.903 35.2187 144.914 34.824 144.914 34.44C144.935 34.056 144.946 33.7893 144.946 33.64V25.32C144.946 25.1067 144.935 24.776 144.914 24.328C144.892 23.88 144.871 23.4213 144.85 22.952C144.85 22.4827 144.85 22.1307 144.85 21.896C144.85 21.704 145.01 21.608 145.33 21.608C145.628 21.608 145.938 21.6933 146.258 21.864C146.578 22.0133 146.738 22.216 146.738 22.472C146.738 22.6427 146.738 22.92 146.738 23.304C146.738 23.6667 146.727 24.0507 146.706 24.456C146.706 24.8613 146.706 25.2133 146.706 25.512C147.132 24.6373 147.687 23.912 148.37 23.336C149.074 22.7387 149.831 22.2907 150.642 21.992C151.474 21.672 152.284 21.512 153.074 21.512C154.098 21.512 154.919 21.704 155.538 22.088C156.156 22.4507 156.626 22.9307 156.946 23.528C157.266 24.1253 157.479 24.776 157.586 25.48C157.692 26.1627 157.746 26.824 157.746 27.464V33.64C157.746 33.768 157.756 34.056 157.778 34.504C157.799 34.952 157.81 35.4213 157.81 35.912C157.831 36.4027 157.842 36.776 157.842 37.032C157.842 37.224 157.682 37.32 157.362 37.32C157.084 37.32 156.775 37.2347 156.434 37.064C156.114 36.9147 155.954 36.712 155.954 36.456C155.954 36.2853 155.954 36.0293 155.954 35.688C155.975 35.3253 155.986 34.952 155.986 34.568C156.007 34.184 156.018 33.8747 156.018 33.64V27.592ZM170.862 34.152C171.118 33.9813 171.321 33.896 171.47 33.896C171.662 33.896 171.758 33.992 171.758 34.184C171.758 34.3547 171.63 34.6213 171.374 34.984C171.118 35.3467 170.777 35.72 170.35 36.104C169.945 36.488 169.486 36.8187 168.974 37.096C168.462 37.3733 167.939 37.512 167.406 37.512C166.297 37.512 165.55 37.1813 165.166 36.52C164.782 35.8373 164.59 34.824 164.59 33.48V23.176H164.462C163.993 23.1973 163.534 23.2293 163.086 23.272C162.638 23.2933 162.414 23.304 162.414 23.304C162.137 23.304 161.902 23.1653 161.71 22.888C161.518 22.5893 161.422 22.3333 161.422 22.12C161.422 21.9067 161.529 21.8 161.742 21.8H164.59V20.104C164.59 19.8907 164.579 19.56 164.558 19.112C164.558 18.664 164.547 18.2053 164.526 17.736C164.526 17.2667 164.526 16.9147 164.526 16.68C164.526 16.488 164.686 16.392 165.006 16.392C165.283 16.392 165.582 16.4773 165.902 16.648C166.222 16.7973 166.382 17 166.382 17.256C166.382 17.4267 166.371 17.6933 166.35 18.056C166.35 18.3973 166.339 18.76 166.318 19.144C166.318 19.528 166.318 19.848 166.318 20.104V21.704L167.278 21.672C167.662 21.6507 168.11 21.6187 168.622 21.576C169.134 21.5333 169.497 21.5013 169.71 21.48H169.742C169.998 21.48 170.222 21.6187 170.414 21.896C170.606 22.152 170.702 22.3973 170.702 22.632C170.702 22.888 170.595 23.016 170.382 23.016C170.169 23.016 169.763 23.016 169.166 23.016C168.569 23.016 168.057 23.0267 167.63 23.048L166.318 23.112V33.544C166.318 34.44 166.403 35.0373 166.574 35.336C166.745 35.6347 167.065 35.784 167.534 35.784C167.982 35.784 168.483 35.6453 169.038 35.368C169.593 35.0907 170.147 34.728 170.702 34.28L170.862 34.152ZM178.521 29.128C177.348 28.8507 176.463 28.4453 175.865 27.912C175.289 27.3573 175.001 26.5893 175.001 25.608C175.001 24.7973 175.268 24.0827 175.801 23.464C176.335 22.8453 177.039 22.3653 177.913 22.024C178.788 21.6827 179.748 21.512 180.793 21.512C182.009 21.512 183.055 21.704 183.929 22.088C184.804 22.472 185.455 22.9413 185.881 23.496C185.945 23.56 185.977 23.6667 185.977 23.816C185.977 24.2 185.86 24.4987 185.625 24.712C185.391 24.9253 185.199 25.032 185.049 25.032C184.964 25.032 184.889 25 184.825 24.936C184.783 24.8507 184.719 24.7547 184.633 24.648C184.292 24.1147 183.855 23.7413 183.321 23.528C182.788 23.2933 182.287 23.1547 181.817 23.112C181.348 23.048 181.007 23.016 180.793 23.016C179.556 23.016 178.564 23.272 177.817 23.784C177.071 24.296 176.697 24.9253 176.697 25.672C176.697 26.12 176.879 26.5147 177.241 26.856C177.625 27.176 178.276 27.4427 179.193 27.656L182.265 28.392C183.631 28.712 184.708 29.2133 185.497 29.896C186.287 30.5787 186.681 31.5813 186.681 32.904C186.681 33.736 186.436 34.504 185.945 35.208C185.455 35.912 184.751 36.4773 183.833 36.904C182.937 37.3093 181.86 37.512 180.601 37.512C179.407 37.512 178.393 37.3627 177.561 37.064C176.751 36.7867 176.1 36.456 175.609 36.072C175.119 35.6667 174.767 35.2933 174.553 34.952C174.34 34.5893 174.233 34.344 174.233 34.216C174.233 33.9173 174.351 33.6293 174.585 33.352C174.841 33.0533 175.076 32.904 175.289 32.904C175.417 32.904 175.513 32.9787 175.577 33.128C175.897 33.9387 176.324 34.5467 176.857 34.952C177.391 35.3573 177.977 35.624 178.617 35.752C179.279 35.8587 179.94 35.912 180.601 35.912C181.924 35.912 182.98 35.6133 183.769 35.016C184.559 34.3973 184.953 33.7147 184.953 32.968C184.953 32.2 184.708 31.5707 184.217 31.08C183.748 30.568 182.916 30.1733 181.721 29.896L178.521 29.128Z" fill="#D6A29E"/>
</svg>
